<svg width="105" height="46" viewBox="0 0 105 46" fill="none" xmlns="http://www.w3.org/2000/svg">
<path d="M0 10C0 4.47715 4.47715 0 10 0H95C100.523 0 105 4.47715 105 10V36C105 41.5228 100.523 46 95 46H10C4.47715 46 0 41.5228 0 36V10Z" fill="#E4573D"/>
<path d="M18.5 17.0543V10.6793H9.125C8.46875 10.6793 8 11.1949 8 11.8043V33.5543C8 34.2105 8.46875 34.6793 9.125 34.6793H24.875C25.4844 34.6793 26 34.2105 26 33.5543V18.1793H19.625C18.9688 18.1793 18.5 17.7105 18.5 17.0543ZM21.5 28.1168C21.5 28.4449 21.2188 28.6793 20.9375 28.6793H13.0625C12.7344 28.6793 12.5 28.4449 12.5 28.1168V27.7418C12.5 27.4605 12.7344 27.1793 13.0625 27.1793H20.9375C21.2188 27.1793 21.5 27.4605 21.5 27.7418V28.1168ZM21.5 25.1168C21.5 25.4449 21.2188 25.6793 20.9375 25.6793H13.0625C12.7344 25.6793 12.5 25.4449 12.5 25.1168V24.7418C12.5 24.4605 12.7344 24.1793 13.0625 24.1793H20.9375C21.2188 24.1793 21.5 24.4605 21.5 24.7418V25.1168ZM21.5 21.7418V22.1168C21.5 22.4449 21.2188 22.6793 20.9375 22.6793H13.0625C12.7344 22.6793 12.5 22.4449 12.5 22.1168V21.7418C12.5 21.4605 12.7344 21.1793 13.0625 21.1793H20.9375C21.2188 21.1793 21.5 21.4605 21.5 21.7418ZM26 16.398C26 16.1168 25.8594 15.8355 25.6719 15.6011L21.0781 11.0074C20.8438 10.8199 20.5625 10.6793 20.2812 10.6793H20V16.6793H26V16.398ZM36.9534 15.3833C37.1934 15.3993 37.4894 15.4153 37.8414 15.4313C38.2094 15.4313 38.5934 15.4393 38.9934 15.4553C39.3934 15.4553 39.7694 15.4553 40.1214 15.4553C40.4894 15.4553 40.7774 15.4553 40.9854 15.4553V28.3673C40.9854 28.9593 41.0414 29.4153 41.1534 29.7353C41.2654 30.0553 41.4814 30.2793 41.8014 30.4073C42.1214 30.5353 42.5774 30.5993 43.1694 30.5993V31.6793C42.7214 31.6793 42.2014 31.6793 41.6094 31.6793C41.0334 31.6793 40.4414 31.6793 39.8334 31.6793C39.2414 31.6953 38.6894 31.7033 38.1774 31.7033C37.6654 31.7193 37.2574 31.7353 36.9534 31.7513C36.9534 31.5273 36.9614 31.3353 36.9774 31.1753C36.9934 30.9993 37.0254 30.8473 37.0734 30.7193C37.5054 30.6873 37.8414 30.6073 38.0814 30.4793C38.3214 30.3513 38.4894 30.1273 38.5854 29.8073C38.6814 29.4713 38.7294 28.9913 38.7294 28.3673V18.5033C38.7294 17.9593 38.6814 17.5433 38.5854 17.2553C38.4894 16.9673 38.3214 16.7593 38.0814 16.6313C37.8414 16.5033 37.5054 16.4313 37.0734 16.4153C37.0254 16.2873 36.9934 16.1353 36.9774 15.9593C36.9614 15.7673 36.9534 15.5753 36.9534 15.3833ZM47.9934 27.5753C48.2334 27.6393 48.4334 27.7193 48.5934 27.8153C48.7534 27.8953 48.9054 28.0073 49.0494 28.1513C48.8734 28.6953 48.7214 29.2873 48.5934 29.9273C48.4814 30.5673 48.3854 31.1673 48.3054 31.7273C48.0014 31.7113 47.5854 31.7033 47.0574 31.7033C46.5454 31.7033 45.9534 31.6953 45.2814 31.6793C44.6254 31.6793 43.9214 31.6793 43.1694 31.6793V30.5993H43.3134C44.4654 30.5993 45.3294 30.4873 45.9054 30.2633C46.4974 30.0233 46.9374 29.6793 47.2254 29.2313C47.5134 28.7833 47.7694 28.2313 47.9934 27.5753ZM46.3134 20.8793C46.2974 21.2793 46.2814 21.7113 46.2654 22.1753C46.2654 22.6393 46.2654 23.0793 46.2654 23.4953C46.2654 23.9113 46.2654 24.3753 46.2654 24.8873C46.2814 25.3993 46.2974 25.8633 46.3134 26.2793C46.1054 26.2793 45.9134 26.2713 45.7374 26.2553C45.5614 26.2393 45.3854 26.2073 45.2094 26.1593C45.1454 25.3273 44.9214 24.7673 44.5374 24.4793C44.1694 24.1753 43.4894 24.0233 42.4974 24.0233H40.7694V22.9913H42.4974C43.4894 22.9913 44.1774 22.8633 44.5614 22.6073C44.9454 22.3513 45.1454 21.8313 45.1614 21.0473C45.3694 20.9833 45.5614 20.9433 45.7374 20.9273C45.9134 20.8953 46.1054 20.8793 46.3134 20.8793ZM47.7294 15.3833C47.7614 15.7353 47.8014 16.1433 47.8494 16.6073C47.8974 17.0713 47.9534 17.5273 48.0174 17.9753C48.0814 18.4233 48.1534 18.8233 48.2334 19.1753C48.1054 19.2873 47.9454 19.3673 47.7534 19.4153C47.5774 19.4473 47.3774 19.4633 47.1534 19.4633C47.1214 18.9673 46.9934 18.4873 46.7694 18.0233C46.5454 17.5593 46.1534 17.1753 45.5934 16.8713C45.0494 16.5673 44.2574 16.4153 43.2174 16.4153H40.4814L40.9854 15.4553C42.2494 15.4553 43.3294 15.4553 44.2254 15.4553C45.1374 15.4393 45.8814 15.4233 46.4574 15.4073C47.0494 15.3913 47.4734 15.3833 47.7294 15.3833ZM51.3674 31.7513C51.3674 31.5273 51.3754 31.3353 51.3914 31.1753C51.4074 30.9993 51.4394 30.8473 51.4874 30.7193C51.9194 30.6873 52.2554 30.6153 52.4954 30.5033C52.7354 30.3753 52.9034 30.1673 52.9994 29.8793C53.0954 29.5753 53.1434 29.1593 53.1434 28.6313V18.5033C53.1434 17.9593 53.0954 17.5433 52.9994 17.2553C52.9034 16.9673 52.7354 16.7593 52.4954 16.6313C52.2554 16.5033 51.9194 16.4313 51.4874 16.4153C51.4394 16.2873 51.4074 16.1353 51.3914 15.9593C51.3754 15.7833 51.3674 15.5913 51.3674 15.3833C51.9914 15.4153 52.5914 15.4393 53.1674 15.4553C53.7594 15.4553 54.2474 15.4553 54.6314 15.4553C54.8554 15.4553 55.1674 15.4553 55.5674 15.4553C55.9834 15.4393 56.3914 15.4313 56.7914 15.4313C57.1914 15.4153 57.4874 15.4073 57.6794 15.4073C59.0074 15.4073 60.0714 15.6233 60.8714 16.0553C61.6714 16.4873 62.2474 17.0553 62.5994 17.7593C62.9514 18.4633 63.1274 19.2313 63.1274 20.0633C63.1274 20.9753 62.9194 21.8553 62.5034 22.7033C62.1034 23.5513 61.5034 24.2473 60.7034 24.7913C59.9034 25.3353 58.8954 25.6073 57.6794 25.6073C57.0074 25.6073 56.4474 25.5193 55.9994 25.3433C55.9674 25.1673 55.9514 24.9993 55.9514 24.8393C55.9514 24.6793 55.9754 24.5193 56.0234 24.3593C56.2314 24.4073 56.4394 24.4473 56.6474 24.4793C56.8554 24.4953 57.0714 24.5033 57.2954 24.5033C57.8874 24.5033 58.4394 24.3993 58.9514 24.1913C59.4634 23.9833 59.8794 23.6153 60.1994 23.0873C60.5194 22.5433 60.6794 21.7673 60.6794 20.7593C60.6794 19.4793 60.3594 18.4473 59.7194 17.6633C59.0954 16.8633 58.0634 16.4633 56.6234 16.4633C56.4474 16.4633 56.2394 16.4793 55.9994 16.5113C55.7754 16.5273 55.4554 16.5833 55.0394 16.6793L55.3994 16.3193V28.1513C55.3994 28.8393 55.4714 29.3673 55.6154 29.7353C55.7594 30.0873 55.9914 30.3353 56.3114 30.4793C56.6314 30.6073 57.0394 30.6873 57.5354 30.7193C57.5834 30.8473 57.6154 30.9993 57.6314 31.1753C57.6474 31.3353 57.6554 31.5273 57.6554 31.7513C57.4154 31.7353 57.1274 31.7193 56.7914 31.7033C56.4714 31.7033 56.1274 31.6953 55.7594 31.6793C55.3914 31.6793 55.0154 31.6793 54.6314 31.6793C54.2634 31.6793 53.8634 31.6793 53.4314 31.6793C52.9994 31.6953 52.5994 31.7033 52.2314 31.7033C51.8634 31.7193 51.5754 31.7353 51.3674 31.7513ZM77.6488 25.2233C77.6488 26.5993 77.5608 27.6873 77.3848 28.4873C77.2088 29.2873 76.8408 29.9673 76.2808 30.5273C75.8328 30.9753 75.2728 31.3193 74.6008 31.5593C73.9448 31.7833 73.2088 31.8953 72.3928 31.8953C70.9048 31.8953 69.7288 31.6793 68.8648 31.2473C68.0168 30.7993 67.4088 30.1433 67.0408 29.2793C66.6888 28.4153 66.5128 27.3673 66.5128 26.1353V18.5033C66.5128 17.9273 66.4728 17.5033 66.3928 17.2313C66.3288 16.9433 66.1928 16.7513 65.9848 16.6553C65.7928 16.5433 65.4968 16.4633 65.0968 16.4153C65.0488 16.2393 65.0168 16.0633 65.0008 15.8873C64.9848 15.7113 64.9768 15.5433 64.9768 15.3833C65.2968 15.3993 65.7128 15.4153 66.2248 15.4313C66.7528 15.4473 67.2648 15.4553 67.7608 15.4553C68.0008 15.4553 68.2488 15.4553 68.5048 15.4553C68.7608 15.4553 69.0088 15.4553 69.2488 15.4553C69.4888 15.4393 69.7208 15.4313 69.9448 15.4313C70.1688 15.4153 70.3688 15.3993 70.5448 15.3833C70.5448 15.5433 70.5368 15.7113 70.5208 15.8873C70.5048 16.0633 70.4728 16.2393 70.4248 16.4153C69.9608 16.4473 69.6088 16.5193 69.3688 16.6313C69.1288 16.7273 68.9688 16.9193 68.8888 17.2073C68.8088 17.4793 68.7688 17.9113 68.7688 18.5033V25.7993C68.7688 26.6953 68.8888 27.5113 69.1288 28.2473C69.3688 28.9833 69.7848 29.5673 70.3768 29.9993C70.9688 30.4153 71.7928 30.6233 72.8488 30.6233C73.2488 30.6233 73.6888 30.5593 74.1688 30.4313C74.6488 30.2873 75.0568 30.0473 75.3928 29.7113C75.6488 29.4553 75.8488 29.1593 75.9928 28.8233C76.1368 28.4873 76.2408 28.0473 76.3047 27.5033C76.3848 26.9593 76.4248 26.2633 76.4248 25.4153V19.4633C76.4248 18.6953 76.3848 18.1033 76.3047 17.6873C76.2248 17.2553 76.0648 16.9433 75.8248 16.7513C75.6008 16.5593 75.2488 16.4473 74.7688 16.4153C74.7208 16.1753 74.6888 15.9833 74.6728 15.8393C74.6568 15.6953 74.6488 15.5433 74.6488 15.3833C74.8408 15.3993 75.0648 15.4153 75.3208 15.4313C75.5768 15.4313 75.8408 15.4393 76.1128 15.4553C76.4008 15.4553 76.6648 15.4553 76.9048 15.4553C77.2728 15.4553 77.6648 15.4473 78.0807 15.4313C78.5128 15.4153 78.8808 15.3993 79.1848 15.3833C79.1848 15.4953 79.1768 15.6313 79.1608 15.7913C79.1448 15.9353 79.1128 16.1433 79.0648 16.4153C78.6968 16.4473 78.4088 16.5593 78.2008 16.7513C77.9928 16.9273 77.8488 17.2313 77.7688 17.6633C77.6888 18.0793 77.6488 18.6793 77.6488 19.4633V25.2233ZM81.5321 15.3833C81.8521 15.3993 82.2361 15.4153 82.6841 15.4313C83.1481 15.4473 83.5961 15.4553 84.0281 15.4553C84.4121 15.4553 84.7961 15.4553 85.1801 15.4553C85.5641 15.4393 85.9481 15.4313 86.3321 15.4313C86.7161 15.4153 87.0921 15.4073 87.4601 15.4073C88.3881 15.4073 89.2361 15.5033 90.0041 15.6953C90.7721 15.8873 91.3881 16.2393 91.8521 16.7513C92.3321 17.2473 92.5721 17.9673 92.5721 18.9113C92.5721 19.9353 92.2601 20.8153 91.6361 21.5513C91.0121 22.2713 90.1641 22.7113 89.0921 22.8713C89.9401 22.9193 90.7161 23.0793 91.4201 23.3513C92.1401 23.6073 92.7161 24.0233 93.1481 24.5993C93.5801 25.1753 93.7961 25.9593 93.7961 26.9513C93.7961 27.8153 93.5961 28.6073 93.1961 29.3273C92.8121 30.0473 92.1961 30.6233 91.3481 31.0553C90.5001 31.4713 89.3961 31.6793 88.0361 31.6793C87.5881 31.6793 87.0521 31.6793 86.4281 31.6793C85.8201 31.6793 85.1961 31.6793 84.5561 31.6793C83.9161 31.6953 83.3241 31.7033 82.7801 31.7033C82.2361 31.7193 81.8121 31.7353 81.5081 31.7513C81.5081 31.5273 81.5161 31.3353 81.5321 31.1753C81.5481 30.9993 81.5801 30.8473 81.6281 30.7193C82.0601 30.6873 82.3961 30.6073 82.6361 30.4793C82.8761 30.3513 83.0441 30.1273 83.1401 29.8073C83.2521 29.4713 83.3081 28.9913 83.3081 28.3673V18.5033C83.3081 17.9593 83.2601 17.5433 83.1641 17.2553C83.0681 16.9673 82.9001 16.7593 82.6601 16.6313C82.4201 16.5033 82.0841 16.4313 81.6521 16.4153C81.6041 16.2873 81.5721 16.1353 81.5561 15.9593C81.5401 15.7673 81.5321 15.5753 81.5321 15.3833ZM85.5641 16.2953V28.3673C85.5641 29.0233 85.6201 29.5193 85.7321 29.8553C85.8601 30.1753 86.0841 30.3913 86.4041 30.5033C86.7401 30.5993 87.2041 30.6473 87.7961 30.6473C88.9801 30.6473 89.8441 30.3513 90.3881 29.7593C90.9481 29.1513 91.2281 28.3273 91.2281 27.2873C91.2281 26.5353 91.0761 25.9273 90.7721 25.4633C90.4681 24.9833 90.0601 24.6233 89.5481 24.3833C89.0521 24.1273 88.5001 23.9513 87.8921 23.8553C87.3001 23.7593 86.7081 23.7113 86.1161 23.7113H85.2761V22.6793H86.3081C87.3481 22.6793 88.1401 22.5353 88.6841 22.2473C89.2281 21.9593 89.6041 21.5833 89.8121 21.1193C90.0201 20.6393 90.1241 20.1433 90.1241 19.6313C90.1241 18.7993 89.9321 18.1593 89.5481 17.7113C89.1801 17.2473 88.7161 16.9273 88.1561 16.7513C87.6121 16.5593 87.0761 16.4633 86.5481 16.4633C86.3401 16.4633 86.1321 16.4793 85.9241 16.5113C85.7321 16.5273 85.5001 16.5753 85.2281 16.6553L85.5641 16.2953Z" fill="white"/>
</svg>
