<svg width="105" height="46" viewBox="0 0 105 46" fill="none" xmlns="http://www.w3.org/2000/svg">
<path d="M0 10C0 4.47715 4.47715 0 10 0H94.9488C100.472 0 104.949 4.47715 104.949 10V36C104.949 41.5228 100.472 46 94.9489 46H10C4.47717 46 0 41.5228 0 36V10Z" fill="#E4573D"/>
<path d="M21.4844 23.0469C21.7656 22.5781 21.8125 20.8438 21.3906 20.8438C21.2969 20.8438 21.25 22.2969 21.4844 23.0469ZM21.4375 25.25C21.0625 26.1875 20.5938 27.2656 20.0781 28.1562C20.9688 27.8281 21.9062 27.3594 23.0312 27.1719C22.4688 26.7031 21.8594 26.0469 21.4375 25.25ZM17.0312 31.1094C17.0312 31.1094 17.6406 30.8281 18.6719 29.1875C18.3438 29.5156 17.2656 30.3594 17.0312 31.1094ZM24.625 18.5C23.9688 18.5 23.5 18.0312 23.5 17.375V11H14.125C13.4688 11 13 11.5156 13 12.125V33.875C13 34.5312 13.4688 35 14.125 35H29.875C30.4844 35 31 34.5312 31 33.875V18.5H24.625ZM24.25 26.5625C25.1406 26.4688 27.0156 26.2812 27.6719 26.8906C28.2344 27.4531 28.1406 28.9531 26.7344 28.9531C25.9844 28.9531 24.7656 28.5781 23.7344 28.0156C22.6094 28.2031 21.25 28.7188 20.0312 29.1406C18.8594 31.1562 18.0156 32 17.1719 32C16.9375 32 16.4219 31.8594 16.1875 31.5312C15.2969 30.4531 17.4531 29 18.7188 28.3438C18.7188 28.3438 18.7188 28.3438 18.7656 28.3438C19.3281 27.3594 20.125 25.625 20.6406 24.3125C20.2656 22.8125 20.0312 21.5938 20.2656 20.7031C20.5469 19.8125 22.2812 19.6719 22.5156 21.0312C22.75 21.875 22.4219 23.1875 22.2344 24.0312C22.6562 25.2031 23.3125 26 24.25 26.5625ZM30.6719 15.9219L26.0781 11.3281C25.8438 11.1406 25.5625 11 25.2812 11H25V17H31V16.7188C31 16.4375 30.8594 16.1562 30.6719 15.9219ZM27.1562 27.9219C27.3906 27.7812 27.0625 27.3594 25.1875 27.5C26.9219 28.25 27.1562 27.9219 27.1562 27.9219ZM41.9534 32.072C41.9534 31.848 41.9614 31.656 41.9774 31.496C41.9934 31.32 42.0254 31.168 42.0734 31.04C42.5054 31.008 42.8414 30.936 43.0814 30.824C43.3214 30.696 43.4894 30.488 43.5854 30.2C43.6814 29.896 43.7294 29.48 43.7294 28.952V18.824C43.7294 18.28 43.6814 17.864 43.5854 17.576C43.4894 17.288 43.3214 17.08 43.0814 16.952C42.8414 16.824 42.5054 16.752 42.0734 16.736C42.0254 16.608 41.9934 16.456 41.9774 16.28C41.9614 16.104 41.9534 15.912 41.9534 15.704C42.5774 15.736 43.1774 15.76 43.7534 15.776C44.3454 15.776 44.8334 15.776 45.2174 15.776C45.4414 15.776 45.7534 15.776 46.1534 15.776C46.5694 15.76 46.9774 15.752 47.3774 15.752C47.7774 15.736 48.0734 15.728 48.2654 15.728C49.5934 15.728 50.6574 15.944 51.4574 16.376C52.2574 16.808 52.8334 17.376 53.1854 18.08C53.5374 18.784 53.7134 19.552 53.7134 20.384C53.7134 21.296 53.5054 22.176 53.0894 23.024C52.6894 23.872 52.0894 24.568 51.2894 25.112C50.4894 25.656 49.4814 25.928 48.2654 25.928C47.5934 25.928 47.0334 25.84 46.5854 25.664C46.5534 25.488 46.5374 25.32 46.5374 25.16C46.5374 25 46.5614 24.84 46.6094 24.68C46.8174 24.728 47.0254 24.768 47.2334 24.8C47.4414 24.816 47.6574 24.824 47.8814 24.824C48.4734 24.824 49.0254 24.72 49.5374 24.512C50.0494 24.304 50.4654 23.936 50.7854 23.408C51.1054 22.864 51.2654 22.088 51.2654 21.08C51.2654 19.8 50.9454 18.768 50.3054 17.984C49.6814 17.184 48.6494 16.784 47.2094 16.784C47.0334 16.784 46.8254 16.8 46.5854 16.832C46.3614 16.848 46.0414 16.904 45.6254 17L45.9854 16.64V28.472C45.9854 29.16 46.0574 29.688 46.2014 30.056C46.3454 30.408 46.5774 30.656 46.8974 30.8C47.2174 30.928 47.6254 31.008 48.1214 31.04C48.1694 31.168 48.2014 31.32 48.2174 31.496C48.2334 31.656 48.2414 31.848 48.2414 32.072C48.0014 32.056 47.7134 32.04 47.3774 32.024C47.0574 32.024 46.7134 32.016 46.3454 32C45.9774 32 45.6014 32 45.2174 32C44.8494 32 44.4494 32 44.0174 32C43.5854 32.016 43.1854 32.024 42.8174 32.024C42.4494 32.04 42.1614 32.056 41.9534 32.072ZM55.8987 32.072C55.8987 31.848 55.9067 31.656 55.9227 31.496C55.9387 31.32 55.9707 31.168 56.0187 31.04C56.4507 31.008 56.7867 30.928 57.0267 30.8C57.2667 30.672 57.4347 30.448 57.5307 30.128C57.6427 29.792 57.6987 29.312 57.6987 28.688V18.824C57.6987 18.28 57.6507 17.864 57.5547 17.576C57.4587 17.288 57.2907 17.08 57.0507 16.952C56.8107 16.824 56.4747 16.752 56.0427 16.736C55.9947 16.608 55.9627 16.456 55.9467 16.28C55.9307 16.088 55.9227 15.896 55.9227 15.704C56.1787 15.72 56.4987 15.736 56.8827 15.752C57.2827 15.752 57.6907 15.76 58.1067 15.776C58.5387 15.776 58.9307 15.776 59.2827 15.776C59.7467 15.776 60.2187 15.768 60.6987 15.752C61.1787 15.736 61.6507 15.728 62.1147 15.728C62.9627 15.728 63.8187 15.792 64.6827 15.92C65.5467 16.032 66.3707 16.248 67.1547 16.568C67.9387 16.872 68.6347 17.32 69.2427 17.912C69.8667 18.488 70.3547 19.232 70.7067 20.144C71.0587 21.04 71.2347 22.152 71.2347 23.48C71.2347 24.776 71.0747 25.888 70.7547 26.816C70.4347 27.744 70.0027 28.52 69.4587 29.144C68.9307 29.768 68.3387 30.272 67.6827 30.656C67.0267 31.04 66.3547 31.328 65.6667 31.52C64.9947 31.712 64.3467 31.84 63.7227 31.904C63.0987 31.968 62.5627 32 62.1147 32C61.6667 32 61.1467 32 60.5547 32C59.9787 32 59.3867 32 58.7787 32C58.1867 32.016 57.6347 32.024 57.1227 32.024C56.6107 32.04 56.2027 32.056 55.8987 32.072ZM62.1147 30.92C63.0747 30.92 63.9547 30.808 64.7547 30.584C65.5707 30.344 66.2747 29.96 66.8667 29.432C67.4747 28.888 67.9387 28.16 68.2587 27.248C68.5947 26.336 68.7627 25.2 68.7627 23.84C68.7627 22.544 68.5627 21.44 68.1627 20.528C67.7787 19.6 67.2507 18.856 66.5787 18.296C65.9227 17.72 65.1707 17.304 64.3227 17.048C63.4907 16.776 62.6267 16.64 61.7307 16.64C61.3787 16.64 60.9947 16.672 60.5787 16.736C60.1627 16.784 59.8907 16.848 59.7627 16.928L59.9547 16.304V28.688C59.9547 29.28 60.0107 29.736 60.1227 30.056C60.2347 30.376 60.4427 30.6 60.7467 30.728C61.0667 30.856 61.5227 30.92 62.1147 30.92ZM73.4299 32.072C73.4299 31.848 73.4379 31.656 73.4539 31.496C73.4699 31.32 73.5019 31.168 73.5499 31.04C73.9819 31.008 74.3179 30.936 74.5579 30.824C74.7979 30.696 74.9659 30.488 75.0619 30.2C75.1579 29.896 75.2059 29.48 75.2059 28.952V18.824C75.2059 18.28 75.1579 17.864 75.0619 17.576C74.9659 17.288 74.7979 17.08 74.5579 16.952C74.3179 16.824 73.9819 16.752 73.5499 16.736C73.5019 16.608 73.4699 16.456 73.4539 16.28C73.4379 16.104 73.4299 15.912 73.4299 15.704C73.7019 15.72 74.0059 15.736 74.3419 15.752C74.6779 15.752 75.0299 15.76 75.3979 15.776C75.7819 15.776 76.1499 15.776 76.5019 15.776C76.8539 15.776 77.1739 15.776 77.4619 15.776V28.472C77.4619 29.16 77.5339 29.688 77.6779 30.056C77.8219 30.408 78.0539 30.656 78.3739 30.8C78.6939 30.928 79.1019 31.008 79.5979 31.04C79.6459 31.168 79.6779 31.32 79.6939 31.496C79.7099 31.656 79.7179 31.848 79.7179 32.072C79.4779 32.056 79.1899 32.04 78.8539 32.024C78.5339 32.024 78.1899 32.016 77.8219 32C77.4539 32 77.0779 32 76.6939 32C76.1339 32 75.5259 32 74.8699 32C74.2299 32.016 73.7499 32.04 73.4299 32.072ZM82.9339 27.08C82.7259 27.08 82.5339 27.072 82.3579 27.056C82.1819 27.04 82.0059 27.008 81.8299 26.96C81.7659 26.128 81.5419 25.568 81.1579 25.28C80.7899 24.976 80.1099 24.824 79.1179 24.824H77.3899V23.792H79.1179C80.1099 23.792 80.7979 23.664 81.1819 23.408C81.5659 23.152 81.7659 22.632 81.7819 21.848C81.9899 21.784 82.1819 21.744 82.3579 21.728C82.5339 21.696 82.7259 21.68 82.9339 21.68C82.9179 22.08 82.9019 22.512 82.8859 22.976C82.8859 23.44 82.8859 23.88 82.8859 24.296C82.8859 24.712 82.8859 25.176 82.8859 25.688C82.9019 26.2 82.9179 26.664 82.9339 27.08ZM83.5339 19.784C83.5019 19.288 83.3739 18.808 83.1499 18.344C82.9259 17.88 82.5339 17.496 81.9739 17.192C81.4299 16.888 80.6379 16.736 79.5979 16.736H76.8619L77.3899 15.776C78.6539 15.776 79.7339 15.776 80.6299 15.776C81.5419 15.76 82.2859 15.744 82.8619 15.728C83.4379 15.712 83.8539 15.704 84.1099 15.704C84.1419 16.056 84.1819 16.464 84.2299 16.928C84.2779 17.392 84.3339 17.848 84.3979 18.296C84.4619 18.744 84.5339 19.144 84.6139 19.496C84.4859 19.608 84.3259 19.688 84.1339 19.736C83.9579 19.768 83.7579 19.784 83.5339 19.784Z" fill="white"/>
</svg>
